<svg xmlns="http://www.w3.org/2000/svg" version="1.1" xmlns:xlink="http://www.w3.org/1999/xlink" xmlns:svgjs="http://svgjs.dev/svgjs" width="1500" height="465" viewBox="0 0 1500 465"><g transform="matrix(1,0,0,1,-0.9090909090909918,-1.428541148168648)"><svg viewBox="0 0 396 123" data-background-color="#504557" preserveAspectRatio="xMidYMid meet" height="465" width="1500" xmlns="http://www.w3.org/2000/svg" xmlns:xlink="http://www.w3.org/1999/xlink"><g id="tight-bounds" transform="matrix(1,0,0,1,0.2400000000000091,0.37787217467686673)"><svg viewBox="0 0 395.52 118.97583560499169" height="118.97583560499169" width="395.52"><g><svg viewBox="0 0 580.7862873127259 174.7055366124402" height="118.97583560499169" width="395.52"><g transform="matrix(1,0,0,1,185.26628731272592,24.145265913875605)"><svg viewBox="0 0 395.52 126.41500478468899" height="126.41500478468899" width="395.52"><g id="textblocktransform"><svg viewBox="0 0 395.52 126.41500478468899" height="126.41500478468899" width="395.52" id="textblock"><g><svg viewBox="0 0 395.52 126.41500478468899" height="126.41500478468899" width="395.52"><g transform="matrix(1,0,0,1,0,0)"><svg width="395.52" viewBox="4.5 -32.75 104.49 33.4" height="126.41500478468899" data-palette-color="#ffffff"><path d="M4.5-18.15L8.55-18.15 8.55-0.1Q8.3 0 7.8 0.13 7.3 0.25 6.7 0.25L6.7 0.25Q5.6 0.25 5.05-0.2 4.5-0.65 4.5-1.6L4.5-1.6 4.5-18.15ZM8.55-14.8L4.5-14.8 4.5-30.3Q4.75-30.4 5.28-30.53 5.8-30.65 6.4-30.65L6.4-30.65Q7.5-30.65 8.03-30.23 8.55-29.8 8.55-28.8L8.55-28.8 8.55-14.8ZM31.6-12.3L27.55-12.35 27.55-28.2Q27.55-29.2 28.15-29.8 28.75-30.4 29.75-30.4L29.75-30.4Q30.3-30.4 30.85-30.25 31.4-30.1 31.6-30L31.6-30 31.6-12.3ZM29.75-13.1L29.75-16.55 44.59-16.55Q44.75-16.3 44.9-15.88 45.05-15.45 45.05-14.95L45.05-14.95Q45.05-14.15 44.65-13.63 44.25-13.1 43.5-13.1L43.5-13.1 29.75-13.1ZM29.75-26.95L29.75-30.4 46.34-30.4Q46.5-30.2 46.65-29.75 46.8-29.3 46.8-28.8L46.8-28.8Q46.8-28 46.4-27.48 46-26.95 45.25-26.95L45.25-26.95 29.75-26.95ZM27.55-17.8L31.65-17.8 31.65-0.05Q31.4 0 30.87 0.13 30.35 0.25 29.8 0.25L29.8 0.25Q28.7 0.25 28.12-0.2 27.55-0.65 27.55-1.55L27.55-1.55 27.55-17.8ZM54.14-9L53.94-12.15 69.04-14.2Q68.84-16.95 67.14-18.73 65.44-20.5 62.44-20.5L62.44-20.5Q59.34-20.5 57.32-18.28 55.29-16.05 55.29-11.9L55.29-11.9 55.29-10.8Q55.64-6.8 57.92-4.73 60.19-2.65 64.14-2.65L64.14-2.65Q66.24-2.65 67.94-3.35 69.64-4.05 70.64-4.85L70.64-4.85Q71.19-4.5 71.52-4.03 71.84-3.55 71.84-2.95L71.84-2.95Q71.84-2 70.77-1.18 69.69-0.35 67.92 0.15 66.14 0.65 63.94 0.65L63.94 0.65Q60.09 0.65 57.27-0.75 54.44-2.15 52.92-4.93 51.39-7.7 51.39-11.7L51.39-11.7Q51.39-14.55 52.22-16.78 53.04-19 54.52-20.55 55.99-22.1 58.04-22.93 60.09-23.75 62.49-23.75L62.49-23.75Q65.54-23.75 67.87-22.45 70.19-21.15 71.52-18.82 72.84-16.5 72.84-13.5L72.84-13.5Q72.84-12.4 72.34-11.93 71.84-11.45 70.94-11.35L70.94-11.35 54.14-9ZM80.09-9L79.89-12.15 94.99-14.2Q94.79-16.95 93.09-18.73 91.39-20.5 88.39-20.5L88.39-20.5Q85.29-20.5 83.27-18.28 81.24-16.05 81.24-11.9L81.24-11.9 81.24-10.8Q81.59-6.8 83.87-4.73 86.14-2.65 90.09-2.65L90.09-2.65Q92.19-2.65 93.89-3.35 95.59-4.05 96.59-4.85L96.59-4.85Q97.14-4.5 97.47-4.03 97.79-3.55 97.79-2.95L97.79-2.95Q97.79-2 96.72-1.18 95.64-0.35 93.87 0.15 92.09 0.65 89.89 0.65L89.89 0.65Q86.04 0.65 83.22-0.75 80.39-2.15 78.87-4.93 77.34-7.7 77.34-11.7L77.34-11.7Q77.34-14.55 78.17-16.78 78.99-19 80.47-20.55 81.94-22.1 83.99-22.93 86.04-23.75 88.44-23.75L88.44-23.75Q91.49-23.75 93.82-22.45 96.14-21.15 97.47-18.82 98.79-16.5 98.79-13.5L98.79-13.5Q98.79-12.4 98.29-11.93 97.79-11.45 96.89-11.35L96.89-11.35 80.09-9ZM104.99-13.2L108.99-12.6 108.99-0.1Q108.74 0 108.24 0.13 107.74 0.25 107.14 0.25L107.14 0.25Q106.09 0.25 105.54-0.18 104.99-0.6 104.99-1.55L104.99-1.55 104.99-13.2ZM108.99-10.7L104.99-11.25 104.99-32.4Q105.24-32.5 105.76-32.63 106.29-32.75 106.84-32.75L106.84-32.75Q107.94-32.75 108.46-32.33 108.99-31.9 108.99-30.95L108.99-30.95 108.99-10.7Z" opacity="1" transform="matrix(1,0,0,1,0,0)" fill="#000000" class="wordmark-text-0" data-fill-palette-color="primary" id="text-0" ></path></svg></g></svg></g></svg></g></svg></g><g><svg viewBox="0 0 155.42273864317568 174.7055366124402" height="174.7055366124402" width="155.42273864317568"><g><svg xmlns="http://www.w3.org/2000/svg" xmlns:xlink="http://www.w3.org/1999/xlink" version="1.1" x="0" y="0" viewBox="13.81686147486561 9.33 72.36313873680831 81.34100000000001" enable-background="new 0 0 100 100" xml:space="preserve" height="174.7055366124402" width="155.42273864317568" class="icon-icon-0" data-fill-palette-color="accent" id="icon-0"><path d="M54.593 9.33C37.175 9.33 23.004 23.501 23.004 40.919V42.832L13.995 59.659A1.5 1.5 0 0 0 15.317 61.868H23.004V73.298C23.004 78.431 27.18 82.607 32.314 82.607H45.513V89.171C45.513 90.001 46.184 90.671 47.013 90.671S48.513 90.001 48.513 89.171V81.107A1.5 1.5 0 0 0 47.013 79.607H32.313A6.317 6.317 0 0 1 26.003 73.298V60.368A1.5 1.5 0 0 0 24.503 58.868H17.821L25.825 43.916C25.942 43.699 26.003 43.455 26.003 43.209V40.919C26.003 25.154 38.827 12.33 54.592 12.33S83.181 25.154 83.181 40.919C83.181 48.542 80.218 55.69 74.832 61.081A1.5 1.5 0 0 0 74.191 62.31V89.09A1.5 1.5 0 1 0 77.191 89.09V62.959C82.993 57.033 86.18 49.23 86.18 40.918 86.182 23.5 72.011 9.33 54.593 9.33M55.943 22.503C45.064 21.505 36.668 29.626 35.513 42.244A1.5 1.5 0 0 0 36.869 43.874 1.503 1.503 0 0 0 38.499 42.517C39.509 31.487 46.402 24.648 55.669 25.49 59.778 25.867 63.453 27.654 66.019 30.523 68.606 33.418 69.831 37.197 69.467 41.164A11.76 11.76 0 0 1 65.257 49.182 11.76 11.76 0 0 1 56.606 51.872 9.1 9.1 0 0 1 50.394 48.608 9.1 9.1 0 0 1 48.312 41.907C48.677 37.928 52.196 34.864 55.989 35.209 59.011 35.485 61.115 37.631 60.883 40.198 60.67 42.494 58.497 43.639 57.08 43.538A1.503 1.503 0 0 0 55.486 44.937 1.5 1.5 0 0 0 56.886 46.532C59.978 46.737 63.511 44.345 63.87 40.471 64.255 36.2 60.984 32.652 56.262 32.221 50.843 31.722 45.839 36.034 45.325 41.633A12.08 12.08 0 0 0 48.089 50.526 12.08 12.08 0 0 0 56.332 54.858 14.72 14.72 0 0 0 67.177 51.486 14.73 14.73 0 0 0 72.454 41.435C72.894 36.632 71.403 32.046 68.255 28.524 65.184 25.086 60.811 22.948 55.943 22.503" fill="#000000" data-fill-palette-color="accent" ></path></svg></g></svg></g></svg></g><defs></defs></svg><rect width="395.52" height="118.97583560499169" fill="none" stroke="none" visibility="hidden"></rect></g></svg></g></svg>